<svg width="81" height="31" viewBox="0 0 81 31" fill="none" xmlns="http://www.w3.org/2000/svg">
<path d="M57.503 0.491917C57.7043 0.492176 57.9057 0.492435 58.1132 0.492702C59.6418 0.512938 60.9042 0.669753 62.3132 1.19545C62.4695 1.24935 62.6259 1.30325 62.7869 1.35877C63.5365 1.64028 63.9053 1.84938 64.223 2.48192C63.3266 2.72232 62.4701 2.86081 61.5367 2.95414C58.3715 3.27283 55.4039 3.98777 52.5661 5.21456C52.1599 5.39007 51.7512 5.56087 51.3424 5.73201C46.9308 7.60658 42.9915 10.0822 39.1034 12.6304C38.7642 12.8492 38.4145 13.0565 38.059 13.2561C38.1766 13.7892 38.4001 14.1204 38.7863 14.5513C38.8966 14.6756 39.0069 14.7999 39.1205 14.928C39.2389 15.0595 39.3574 15.191 39.4794 15.3265C39.7245 15.6021 39.9694 15.8779 40.2142 16.1538C40.3351 16.2897 40.456 16.4256 40.5806 16.5656C41.0472 17.0948 41.4994 17.632 41.9502 18.1708C43.2903 19.7611 44.7264 21.348 46.4165 22.6891C46.653 22.9046 46.653 22.9046 46.653 23.2262C46.824 23.2924 46.824 23.2924 46.9984 23.36C47.399 23.5398 47.6719 23.7207 48.0018 23.98C50.2513 25.6178 52.7178 26.4229 55.7185 26.3318C58.7021 26.1095 61.6307 25.3626 63.6501 23.387C64.6808 22.19 65.4586 20.9495 65.9418 19.5276C65.9846 19.4032 66.0275 19.2789 66.0716 19.1507C66.7825 16.6908 66.4362 13.6003 65.1152 11.3232C64.9567 10.9297 64.9851 10.7417 65.1779 10.3615C66.2745 9.79949 67.3542 9.76697 68.6155 9.87911C69.4269 10.087 69.6809 10.4722 70.0717 11.0751C71.8148 14.2368 71.5999 18.0391 70.3343 21.2965C68.7878 24.7851 66.3002 27.7259 62.2416 29.3771C58.2336 30.8534 54.2758 31.0547 50.1525 29.8281C49.7368 29.6802 49.343 29.5155 48.9447 29.3369C48.7791 29.2677 48.6134 29.1985 48.4427 29.1271C47.1426 28.5638 46.0395 27.8882 44.9342 27.0856C44.6949 26.9137 44.6949 26.9137 44.4508 26.7382C42.2673 25.1295 40.555 23.2423 38.8229 21.2965C38.7173 21.1779 38.6116 21.0593 38.5028 20.9371C38.4193 20.8434 38.3359 20.7498 38.25 20.6533C37.5872 20.8606 37.0171 21.1029 36.4267 21.4297C36.2652 21.5186 36.1037 21.6075 35.9373 21.6992C35.7709 21.7918 35.6045 21.8845 35.433 21.9799C35.2696 22.0701 35.1061 22.1603 34.9377 22.2532C33.9836 22.7793 33.9836 22.7793 33.041 23.3198C31.9883 23.9322 30.9071 24.4055 29.7395 24.8443C29.5561 24.9137 29.3727 24.983 29.1838 25.0545C25.1194 26.5623 20.9781 27.3827 16.6694 26.1208C14.6808 25.4111 14.6808 25.4111 13.9957 24.8343C13.9957 24.6751 13.9957 24.5159 13.9957 24.3519C14.1656 24.3483 14.1656 24.3483 14.339 24.3448C16.5735 24.2932 18.7101 24.2263 20.8709 23.7086C21.1933 23.6324 21.1933 23.6324 21.5222 23.5547C26.5178 22.2594 30.9149 19.9077 35.1943 17.4371C34.9034 16.6421 34.3458 16.1262 33.7023 15.5174C33.502 15.3251 33.3019 15.1327 33.1018 14.9402C33.0039 14.8468 32.9061 14.7535 32.8053 14.6573C32.5356 14.3962 32.2741 14.1308 32.0141 13.8629C31.416 13.2679 30.749 12.7873 30.0379 12.2912C29.8333 12.146 29.8333 12.146 29.6246 11.9979C26.9979 10.1964 24.3633 9.85388 21.0619 10.0399C19.2854 10.2495 17.5119 11.0842 16.3949 12.2711C15.6491 13.2122 15.1705 14.1239 14.9864 15.2461C14.832 15.9438 14.832 15.9438 14.2225 16.3315C13.1824 16.5926 12.01 16.566 10.9401 16.4722C10.751 16.3661 10.5619 16.26 10.3671 16.1506C9.89465 13.7814 11.1799 11.6447 12.6589 9.7183C14.5335 7.59082 17.5926 6.35199 20.6467 5.90672C25.0148 5.4037 28.9565 6.53148 32.4311 8.74779C33.0643 9.1873 33.6612 9.65531 34.2446 10.141C34.5972 10.3949 34.5972 10.3949 35.0026 10.3477C35.4597 10.1722 35.7877 9.96086 36.1731 9.68815C36.341 9.57206 36.5089 9.45598 36.6819 9.33638C36.7777 9.27004 36.8735 9.20371 36.9722 9.13537C49.6077 0.481304 49.6077 0.481304 57.503 0.491917Z" fill="#6CFACD"/>
<path d="M76.8872 3.34611C77.032 3.35106 77.1767 3.35601 77.3258 3.36111C78.2852 3.40448 79.1586 3.51545 80.0742 3.76823C80.7771 4.57472 80.6765 5.46674 80.5554 6.41906C80.4565 6.82211 80.331 7.11767 80.0742 7.46683C79.5798 7.67496 79.2316 7.64359 78.6782 7.63824C78.4656 7.63667 78.2529 7.6351 78.0339 7.63348C77.802 7.63114 77.57 7.62879 77.3311 7.62638C76.8371 7.62356 76.3431 7.62084 75.8492 7.61821C75.0728 7.61348 74.2965 7.60784 73.5202 7.60007C69.6585 7.5644 65.9491 7.68101 62.2058 8.54223C62.0244 8.58334 61.8429 8.62445 61.656 8.6668C55.8387 10.0344 50.6657 12.6382 45.8011 15.5883C44.7409 16.2233 44.7409 16.2233 44.1703 16.4721C43.3077 16.3268 42.837 15.8829 42.2605 15.3464C42.1502 15.2503 42.0399 15.1541 41.9263 15.055C41.5661 14.5242 41.5566 14.0234 41.4966 13.4167C47.7617 9.54278 53.8481 6.24095 61.439 4.52509C61.8644 4.42689 62.2855 4.32225 62.7064 4.21108C67.2028 3.03787 72.2327 3.16701 76.8872 3.34611Z" fill="#6CFACD"/>
<path d="M29.083 14.2409C30.0145 14.7312 30.879 15.4766 31.3747 16.3113C31.4583 16.7699 31.4583 16.7699 31.3747 17.2762C30.9866 17.5734 30.6754 17.7639 30.2288 17.9797C30.1085 18.0409 29.9882 18.1022 29.8642 18.1653C28.498 18.8479 27.0861 19.4481 25.6454 20.0099C25.5073 20.0644 25.3693 20.119 25.227 20.1752C19.9792 22.2246 14.4251 22.832 8.69604 22.9949C8.46347 23.0016 8.2309 23.0083 7.99129 23.0152C1.84302 23.1835 1.84302 23.1835 1.03303 22.6833C0.58825 22.1424 0.59611 21.6314 0.591397 20.9949C0.588689 20.8294 0.585981 20.664 0.583191 20.4936C0.628899 19.9913 0.731966 19.651 1.00916 19.2059C1.60198 18.8731 1.71549 18.8449 2.38387 18.8528C2.62659 18.8544 2.62659 18.8544 2.87422 18.856C3.04949 18.8587 3.22476 18.8614 3.40534 18.8641C3.78135 18.867 4.15735 18.8697 4.53335 18.8725C4.72993 18.8745 4.92651 18.8765 5.12905 18.8785C9.95737 18.9329 9.95737 18.9329 14.7596 18.5626C14.9251 18.5428 15.0906 18.5229 15.2611 18.5024C19.7845 17.9329 24.3997 16.5448 28.192 14.3643C28.51 14.2208 28.51 14.2208 29.083 14.2409Z" fill="#6CFACD"/>
<path d="M76.8277 6.66284C77.2007 6.75183 77.5737 6.84082 77.9467 6.92981C78.4006 6.99049 78.6819 6.92802 79.1194 6.82365C79.5491 6.894 79.5491 6.894 79.8833 6.98446C79.8833 7.09059 79.8833 7.19673 79.8833 7.30608C79.389 7.5142 79.047 7.47995 78.4938 7.47038C78.2835 7.46715 78.0733 7.46391 77.8566 7.46058C77.6288 7.45624 77.401 7.45189 77.1664 7.44741C76.9338 7.44361 76.7011 7.43982 76.4615 7.43591C75.7162 7.42356 74.9709 7.41006 74.2256 7.39653C73.7213 7.38797 73.217 7.37949 72.7127 7.37109C71.4743 7.35029 70.2359 7.32854 68.9976 7.30608C68.9976 7.25301 68.9976 7.19994 68.9976 7.14527C70.6276 6.73986 72.2038 6.82103 73.8794 6.88395C74.166 6.89334 74.4526 6.90255 74.7392 6.91159C75.4355 6.93392 76.1316 6.95855 76.8277 6.98446C76.8277 6.87833 76.8277 6.77219 76.8277 6.66284Z" fill="#6CFACD"/>
<path d="M9.65145 22.4031C10.6668 22.3702 10.6668 22.3702 11.1311 22.6634C11.2256 22.7828 11.2256 22.7828 11.322 22.9046C8.09493 23.0488 4.98192 23.1011 1.77313 22.7438C1.77313 22.6907 1.77313 22.6377 1.77313 22.583C2.80588 22.5599 3.83864 22.537 4.8714 22.5143C5.22221 22.5066 5.57302 22.4988 5.92383 22.4909C6.43015 22.4796 6.93647 22.4684 7.4428 22.4574C7.59783 22.4539 7.75286 22.4503 7.9126 22.4467C8.20765 22.4403 8.50273 22.4348 8.79783 22.4303C9.0825 22.4249 9.3671 22.4157 9.65145 22.4031Z" fill="#6CFACD"/>
<path d="M57.5387 9.71832C56.9802 10.0318 56.4242 10.277 55.8236 10.5286C55.6014 10.6219 55.3792 10.7152 55.1503 10.8113C54.916 10.9093 54.6816 11.0073 54.4472 11.1053C54.2106 11.2045 53.974 11.3038 53.7374 11.403C53.1585 11.6458 52.5795 11.8882 52.0003 12.1304C51.9373 12.0243 51.8743 11.9182 51.8093 11.8088C52.06 11.5676 52.06 11.5676 52.3823 11.3264C52.5713 11.3264 52.7604 11.3264 52.9552 11.3264C52.9552 11.1672 52.9552 11.008 52.9552 10.844C52.7661 10.897 52.5771 10.9501 52.3823 11.0048C52.4453 10.8456 52.5083 10.6864 52.5732 10.5224C53.201 10.3938 53.4728 10.346 54.1011 10.5224C54.7011 10.3294 55.267 10.1254 55.8199 9.84897C56.391 9.65359 56.9303 9.69861 57.5387 9.71832Z" fill="#6CFACD"/>
<path d="M45.8891 3.60742C46.0152 3.66049 46.1412 3.71356 46.2711 3.76823C45.5148 4.24583 44.7586 4.72343 43.9794 5.21551C44.1684 5.32164 44.3575 5.42777 44.5523 5.53712C44.5881 5.95924 44.5881 5.95924 44.5523 6.34116C44.3632 6.2881 44.1742 6.23503 43.9794 6.18036C43.9794 6.07422 43.9794 5.96809 43.9794 5.85874C43.8533 5.85874 43.7273 5.85874 43.5974 5.85874C43.5974 5.96487 43.5974 6.07101 43.5974 6.18036C43.2193 6.23342 42.8411 6.28649 42.4515 6.34116C42.6406 6.1289 42.8297 5.91663 43.0245 5.69793C42.8984 5.64486 42.7724 5.5918 42.6425 5.53712C43.1117 5.24536 43.5813 4.95394 44.051 4.66273C44.1844 4.57971 44.3178 4.49669 44.4553 4.41115C44.6473 4.29222 44.6473 4.29222 44.8432 4.17088C44.9613 4.09761 45.0793 4.02435 45.2009 3.94886C45.5072 3.76823 45.5072 3.76823 45.8891 3.60742ZM44.7433 4.89389C44.8063 5.05309 44.8693 5.21229 44.9343 5.37631C44.7452 5.45591 44.7452 5.45591 44.5523 5.53712C44.6153 5.32486 44.6783 5.11259 44.7433 4.89389Z" fill="#6CFACD"/>
<path d="M24.2728 26.0303C24.4591 26.0467 24.6455 26.0631 24.8375 26.0799C24.9781 26.0934 25.1186 26.1069 25.2635 26.1208C23.7183 26.8494 21.4511 26.9657 19.7251 26.764C19.5991 26.6048 19.473 26.4456 19.3431 26.2816C19.5179 26.2834 19.6927 26.2853 19.8728 26.2872C20.0998 26.2887 20.3268 26.2901 20.5606 26.2916C20.8996 26.2944 20.8996 26.2944 21.2455 26.2973C21.8104 26.3161 21.8104 26.3161 22.2078 26.1208C22.9298 25.9622 23.5332 25.9628 24.2728 26.0303Z" fill="#6CFACD"/>
<path d="M59.0666 26.2817C58.8145 26.5471 58.5624 26.8124 58.3027 27.0858C58.1767 27.0327 58.0506 26.9796 57.9208 26.925C57.9208 26.8719 57.9208 26.8188 57.9208 26.7641C57.5722 26.8437 57.5722 26.8437 57.2165 26.925C56.6083 27.0541 56.0688 27.119 55.438 27.0858C55.438 27.0327 55.438 26.9796 55.438 26.925C54.6187 26.8719 53.7994 26.8188 52.9553 26.7641C52.9553 26.7111 52.9553 26.658 52.9553 26.6033C53.204 26.5936 53.4526 26.5838 53.7088 26.5738C54.0385 26.5602 54.3683 26.5466 54.698 26.533C54.8615 26.5267 55.0249 26.5203 55.1933 26.5138C56.497 26.4589 57.7602 26.2597 59.0666 26.2817Z" fill="#6CFACD"/>
<path d="M37.8679 13.7385C38.6735 14.3769 39.3217 15.0746 39.9687 15.829C39.9057 15.9352 39.8426 16.0413 39.7777 16.1507C39.6753 16.018 39.5729 15.8853 39.4674 15.7486C39.0547 15.2913 39.0547 15.2913 38.417 15.3165C38.1452 15.3314 38.1452 15.3314 37.8679 15.3466C37.7419 15.2405 37.6158 15.1343 37.486 15.025C37.612 15.025 37.7381 15.025 37.8679 15.025C37.7773 14.952 37.6867 14.8791 37.5934 14.8039C37.295 14.5426 37.295 14.5426 37.104 14.221C37.23 14.1148 37.3561 14.0087 37.486 13.8993C37.675 14.0055 37.8641 14.1116 38.0589 14.221C37.9959 14.0618 37.9328 13.9025 37.8679 13.7385Z" fill="#6CFACD"/>
<path d="M67.0876 18.2412C67.2137 18.2943 67.3397 18.3473 67.4696 18.402C67.4696 18.6674 67.4696 18.9327 67.4696 19.2061C67.2805 19.2591 67.0915 19.3122 66.8967 19.3669C66.8336 19.5261 66.7706 19.6853 66.7057 19.8493C66.5166 19.7962 66.3275 19.7432 66.1327 19.6885C66.2332 19.8377 66.2332 19.8377 66.3357 19.99C66.3947 20.1028 66.4538 20.2155 66.5147 20.3317C66.4517 20.4379 66.3887 20.544 66.3237 20.6533C66.1347 20.6533 65.9456 20.6533 65.7508 20.6533C65.6878 20.7595 65.6247 20.8656 65.5598 20.975C65.5852 20.8798 65.6105 20.7847 65.6367 20.6866C65.81 20.0335 65.9817 19.3807 66.1327 18.7236C66.2588 18.8298 66.3848 18.9359 66.5147 19.0453C66.5738 18.9424 66.6329 18.8396 66.6937 18.7337C66.8967 18.402 66.8967 18.402 67.0876 18.2412Z" fill="#6CFACD"/>
<path d="M22.8284 5.82884C23.0689 5.82868 23.0689 5.82868 23.3143 5.82852C24.4541 5.8367 25.4938 5.93625 26.6002 6.18061C26.6002 6.23367 26.6002 6.28674 26.6002 6.34141C25.4025 6.54311 25.4025 6.54311 24.7501 6.35146C23.0136 5.88247 20.9395 6.21673 19.152 6.34141C20.2925 5.78741 21.5498 5.82799 22.8284 5.82884Z" fill="#6CFACD"/>
<path d="M65.9419 25.96C65.9655 26.0628 65.9892 26.1656 66.0135 26.2715C66.0529 26.381 66.0923 26.4904 66.1329 26.6032C66.2589 26.6563 66.385 26.7093 66.5148 26.764C66.1367 27.0824 65.7585 27.4008 65.3689 27.7289C65.2429 27.6758 65.1169 27.6227 64.987 27.568C64.3926 27.568 63.8523 27.6414 63.2682 27.7289C63.6405 27.3457 63.8635 27.2404 64.4379 27.0856C64.6191 27.0326 64.8003 26.9795 64.987 26.9248C65.05 26.7656 65.113 26.6064 65.178 26.4424C65.304 26.4424 65.4301 26.4424 65.5599 26.4424C65.686 26.2832 65.812 26.124 65.9419 25.96Z" fill="#6CFACD"/>
<path d="M58.4936 8.271C58.8994 8.3313 58.8994 8.3313 59.2575 8.4318C59.0684 8.6706 59.0684 8.6706 58.8755 8.91423C59.2537 8.91423 59.6318 8.91423 60.0214 8.91423C59.476 9.22039 59.0797 9.34755 58.4578 9.49716C58.2857 9.53903 58.1136 9.58091 57.9363 9.62405C57.7395 9.67069 57.7395 9.67069 57.5387 9.71827C57.5387 9.61214 57.5387 9.506 57.5387 9.39665C57.2236 9.44972 56.9085 9.50279 56.5838 9.55746C57.0371 9.13557 57.5322 8.88033 58.1116 8.59261C58.2377 8.48648 58.3637 8.38035 58.4936 8.271Z" fill="#6CFACD"/>
<path d="M41.8785 23.8694C42.0046 23.8694 42.1306 23.8694 42.2605 23.8694C42.3865 24.1347 42.5126 24.4001 42.6425 24.6734C42.7685 24.6734 42.8945 24.6734 43.0244 24.6734C43.2866 24.8812 43.542 25.0954 43.7883 25.3167C43.8513 25.2105 43.9144 25.1044 43.9793 24.995C44.1053 24.995 44.2314 24.995 44.3613 24.995C44.3849 25.1211 44.4085 25.2471 44.4329 25.377C44.5124 25.8217 44.5124 25.8217 44.9342 26.1207C44.7451 26.2268 44.5561 26.333 44.3613 26.4423C43.9815 26.1356 43.6039 25.8272 43.2273 25.5177C43.1196 25.431 43.0119 25.3444 42.9009 25.2551C42.7982 25.1701 42.6954 25.0851 42.5895 24.9976C42.447 24.8813 42.447 24.8813 42.3016 24.7628C42.0312 24.4713 41.9566 24.2302 41.8785 23.8694Z" fill="#6CFACD"/>
<path d="M30.6107 15.6682C30.9927 15.9295 30.9927 15.9295 31.3746 16.3114C31.4224 16.8341 31.4224 16.8341 31.3746 17.2763C31.1856 17.3294 30.9965 17.3824 30.8017 17.4371C30.8017 17.331 30.8017 17.2248 30.8017 17.1155C30.2345 17.0359 30.2345 17.0359 29.6558 16.9547C30.181 16.03 30.181 16.03 30.6107 15.6682Z" fill="#6CFACD"/>
<path d="M15.7145 12.6128C15.7776 12.7189 15.8406 12.8251 15.9055 12.9344C15.7705 13.2259 15.7705 13.2259 15.5594 13.5776C15.1729 14.2653 14.9965 14.9065 14.8723 15.6575C14.7596 15.9898 14.7596 15.9898 14.1867 16.3114C13.9976 16.2583 13.8086 16.2053 13.6138 16.1506C13.7398 16.1506 13.8659 16.1506 13.9957 16.1506C14.0157 16.0453 14.0356 15.94 14.0562 15.8315C14.2247 15.2055 14.4804 14.6201 14.7477 14.0199C14.7983 13.9021 14.8489 13.7844 14.901 13.6631C15.2866 12.793 15.2866 12.793 15.7145 12.6128Z" fill="#6CFACD"/>
<path d="M69.1884 22.7437C69.3794 23.2261 69.3794 23.2261 69.1892 23.5898C69.0983 23.7185 69.0075 23.8472 68.9139 23.9799C68.7784 24.1748 68.7784 24.1748 68.6401 24.3737C68.5334 24.522 68.5334 24.522 68.4245 24.6734C68.3615 24.5672 68.2985 24.4611 68.2335 24.3517C68.0444 24.2987 67.8554 24.2456 67.6606 24.1909C67.8497 23.8195 68.0387 23.448 68.2335 23.0653C68.3596 23.1183 68.4856 23.1714 68.6155 23.2261C68.8045 23.0669 68.9936 22.9077 69.1884 22.7437Z" fill="#6CFACD"/>
<path d="M60.2125 28.6936C60.4646 28.7467 60.7166 28.7997 60.9764 28.8544C60.9764 29.0667 60.9764 29.2789 60.9764 29.4976C61.2915 29.4446 61.6066 29.3915 61.9313 29.3368C61.5158 29.6867 61.2514 29.774 60.7018 29.9298C60.5524 29.9736 60.403 30.0173 60.249 30.0624C59.8305 30.1409 59.8305 30.1409 59.2576 29.9801C59.5727 29.927 59.8878 29.8739 60.2125 29.8193C60.1593 29.6302 60.1593 29.6302 60.105 29.4373C60.0215 29.0152 60.0215 29.0152 60.2125 28.6936Z" fill="#6CFACD"/>
<path d="M65.3688 27.4072C65.1083 28.0652 64.7393 28.1957 64.032 28.5328C63.3874 28.6534 63.3874 28.6534 62.8861 28.6936C63.2681 28.2112 63.2681 28.2112 63.841 27.8896C63.778 27.7835 63.715 27.6773 63.65 27.568C64.9391 27.2263 64.9391 27.2263 65.3688 27.4072Z" fill="#6CFACD"/>
<path d="M11.3221 12.1304C11.5228 12.425 11.5228 12.425 11.7041 12.7736C11.4558 13.4651 11.4558 13.4651 11.1311 13.7385C11.1351 13.8778 11.139 14.0171 11.1431 14.1606C11.1294 14.7815 10.973 15.24 10.7492 15.829C10.6862 15.829 10.6231 15.829 10.5582 15.829C10.4291 14.4909 10.7979 13.3876 11.3221 12.1304Z" fill="#6CFACD"/>
<path d="M42.2605 12.9346C42.3866 12.9876 42.5126 13.0407 42.6425 13.0954C42.5795 13.2015 42.5164 13.3076 42.4515 13.417C42.5776 13.417 42.7036 13.417 42.8335 13.417C42.7704 13.7885 42.7074 14.1599 42.6425 14.5427C42.8316 14.6488 43.0206 14.7549 43.2154 14.8643C43.2154 14.9704 43.2154 15.0765 43.2154 15.1859C42.5868 15.0034 42.4523 14.8654 42.1173 14.3617C42.0385 14.2092 41.9597 14.0566 41.8786 13.8994C41.7525 14.0056 41.6265 14.1117 41.4966 14.221C41.4489 13.8492 41.4489 13.8492 41.4966 13.417C41.8786 13.1255 41.8786 13.1255 42.2605 12.9346Z" fill="#6CFACD"/>
<path d="M29.465 7.30615C30.6368 7.53386 31.4257 8.12086 32.3296 8.75343C32.1406 8.75343 31.9515 8.75343 31.7567 8.75343C31.5676 8.83303 31.5676 8.83303 31.3747 8.91424C30.9928 9.07504 30.9928 9.07504 30.4199 9.07504C30.4829 8.86278 30.5459 8.65051 30.6108 8.43181C30.6739 8.43181 30.7369 8.43181 30.8018 8.43181C30.5922 7.95047 30.4816 7.81332 29.9185 7.58757C29.7689 7.54777 29.6192 7.50797 29.465 7.46696C29.465 7.41389 29.465 7.36083 29.465 7.30615Z" fill="#6CFACD"/>
<path d="M19.1521 6.34131C19.1521 6.44744 19.1521 6.55358 19.1521 6.66293C18.963 6.66293 18.7739 6.66293 18.5792 6.66293C18.7668 6.8568 18.7668 6.8568 19.123 6.83944C19.5146 6.8342 19.9063 6.82897 20.298 6.82373C20.298 6.8768 20.298 6.92987 20.298 6.98454C19.9638 7.01171 19.6296 7.03842 19.2953 7.06495C19.1092 7.07987 18.9231 7.0948 18.7313 7.11017C18.2997 7.1386 17.8662 7.14535 17.4333 7.14535C16.9855 7.2459 16.5394 7.3522 16.0964 7.46697C16.5492 7.02928 16.9851 6.84179 17.6243 6.63277C17.8724 6.54975 17.8724 6.54975 18.1256 6.46506C18.5792 6.34131 18.5792 6.34131 19.1521 6.34131Z" fill="#6CFACD"/>
<path d="M45.6981 3.9292C45.8872 3.98227 46.0762 4.03533 46.271 4.09001C46.208 4.24921 46.145 4.40841 46.0801 4.57243C45.954 4.57243 45.828 4.57243 45.6981 4.57243C45.6351 4.67857 45.5721 4.7847 45.5071 4.89405C45.5071 4.78792 45.5071 4.68178 45.5071 4.57243C45.3811 4.57243 45.255 4.57243 45.1252 4.57243C45.1882 4.73163 45.2512 4.89083 45.3162 5.05486C45.1271 5.10792 44.938 5.16099 44.7432 5.21567C44.6172 5.3218 44.4911 5.42793 44.3613 5.53728C44.1722 5.37808 43.9831 5.21888 43.7883 5.05486C44.0929 4.8619 44.3997 4.67139 44.7074 4.48198C44.9633 4.32247 44.9633 4.32247 45.2244 4.15973C45.3807 4.08366 45.537 4.00758 45.6981 3.9292Z" fill="#6CFACD"/>
<path d="M14.1866 24.5126C14.5168 24.5038 14.8471 24.4977 15.1773 24.4925C15.3612 24.4888 15.5451 24.485 15.7346 24.4812C16.3119 24.514 16.7205 24.6302 17.2423 24.8342C17.1793 24.9404 17.1163 25.0465 17.0513 25.1558C16.9883 25.1028 16.9253 25.0497 16.8603 24.995C16.4785 24.9885 16.0963 24.9882 15.7145 24.995C15.7145 25.1012 15.7145 25.2073 15.7145 25.3167C15.5254 25.3167 15.3363 25.3167 15.1415 25.3167C15.1415 25.2105 15.1415 25.1044 15.1415 24.995C15.0194 24.9751 14.8973 24.9552 14.7715 24.9347C14.6415 24.9016 14.5115 24.8684 14.3776 24.8342C14.3146 24.7281 14.2516 24.622 14.1866 24.5126Z" fill="#6CFACD"/>
<path d="M40.7327 11.1655C40.8587 11.2186 40.9847 11.2717 41.1146 11.3263C40.7096 11.5953 40.3037 11.8631 39.8971 12.1304C39.7819 12.2071 39.6667 12.2838 39.548 12.3628C38.6752 12.9344 38.6752 12.9344 38.2499 12.9344C38.2499 12.8283 38.2499 12.7222 38.2499 12.6128C38.376 12.6128 38.502 12.6128 38.6319 12.6128C38.7028 12.379 38.7028 12.379 38.7751 12.1404C38.8539 11.9779 38.9327 11.8154 39.0139 11.648C39.4197 11.5072 39.4197 11.5072 39.7778 11.4871C39.7778 11.5933 39.7778 11.6994 39.7778 11.8088C40.0929 11.5965 40.408 11.3842 40.7327 11.1655Z" fill="#6CFACD"/>
<path d="M26.6003 21.7788C26.6634 21.938 26.7264 22.0972 26.7913 22.2612C27.1064 22.2612 27.4215 22.2612 27.7462 22.2612C27.0994 22.6243 26.8024 22.5824 26.052 22.5615C25.6083 22.5848 25.3175 22.6753 24.9173 22.8341C24.3086 23.0653 24.3086 23.0653 23.7357 22.9045C24.681 22.533 25.6263 22.1615 26.6003 21.7788Z" fill="#6CFACD"/>
<path d="M9.98517 18.8843C10.0482 18.9904 10.1112 19.0965 10.1761 19.2059C10.3652 19.1528 10.5543 19.0998 10.7491 19.0451C11.0735 19.0213 11.3987 19.0053 11.7241 18.9942C11.9118 18.9875 12.0995 18.9807 12.2929 18.9738C12.4885 18.9675 12.6841 18.9611 12.8857 18.9546C13.0835 18.9477 13.2813 18.9407 13.4851 18.9336C13.9736 18.9165 14.4621 18.9001 14.9506 18.8843C14.6163 19.2416 14.4536 19.3578 13.9094 19.4215C13.7284 19.4189 13.5474 19.4164 13.3609 19.4138C13.1645 19.4123 12.9682 19.4107 12.7659 19.4091C12.4589 19.403 12.4589 19.403 12.1456 19.3969C11.9387 19.3947 11.7318 19.3925 11.5186 19.3903C11.0074 19.3846 10.4963 19.3766 9.98517 19.3667C9.98517 19.2075 9.98517 19.0483 9.98517 18.8843Z" fill="#6CFACD"/>
<path d="M48.5627 13.5776C48.6888 13.6307 48.8148 13.6838 48.9447 13.7384C48.4496 14.0393 47.9515 14.3364 47.4527 14.6329C47.3117 14.7187 47.1708 14.8044 47.0256 14.8927C46.8896 14.973 46.7535 15.0533 46.6134 15.1361C46.4884 15.211 46.3634 15.286 46.2346 15.3632C45.889 15.5073 45.889 15.5073 45.3161 15.3465C46.3536 14.4428 46.3536 14.4428 47.0468 14.3013C47.459 14.2398 47.459 14.2398 47.7988 13.8993C48.1808 13.7083 48.1808 13.7083 48.5627 13.5776Z" fill="#6CFACD"/>
<path d="M31.3748 19.6882C31.3748 19.7944 31.3748 19.9005 31.3748 20.0098C31.6899 19.9568 32.005 19.9037 32.3297 19.849C32.3297 20.0082 32.3297 20.1674 32.3297 20.3315C32.1131 20.3514 31.8964 20.3713 31.6732 20.3918C31.3364 20.4415 31.3364 20.4415 30.9929 20.4923C30.9298 20.5984 30.8668 20.7045 30.8019 20.8139C30.6128 20.7608 30.4237 20.7078 30.2289 20.6531C30.2886 20.3516 30.2886 20.3516 30.4199 20.0098C30.9929 19.6882 30.9929 19.6882 31.3748 19.6882Z" fill="#6CFACD"/>
<path d="M0.818149 19.3669C1.19629 19.3669 1.57442 19.3669 1.96402 19.3669C1.91627 19.7388 1.91627 19.7388 1.77304 20.171C1.64699 20.2406 1.52095 20.3103 1.39108 20.382C0.929527 20.71 0.93541 20.8361 0.865893 21.3268C0.850138 21.5291 0.834382 21.7314 0.818149 21.9399C0.755126 21.9399 0.692103 21.9399 0.627171 21.9399C0.621991 21.6317 0.6183 21.3235 0.615235 21.0152C0.613019 20.8436 0.610803 20.672 0.608521 20.4951C0.624287 20.0852 0.675646 19.7562 0.818149 19.3669Z" fill="#6CFACD"/>
<path d="M11.8949 10.844C12.0859 11.1656 12.0859 11.1656 12.0859 11.4872C12.2749 11.726 12.2749 11.726 12.4678 11.9697C12.4678 12.0758 12.4678 12.1819 12.4678 12.2913C12.3418 12.2913 12.2157 12.2913 12.0859 12.2913C11.9598 12.5035 11.8338 12.7158 11.7039 12.9345C11.4055 12.7435 11.4055 12.7435 11.131 12.4521C11.1709 11.8131 11.4833 11.3713 11.8949 10.844Z" fill="#6CFACD"/>
<path d="M42.0696 6.34131C41.9263 6.65287 41.9263 6.65287 41.6876 6.98454C41.2818 7.10515 41.2818 7.10515 40.9237 7.14535C40.9237 7.35762 40.9237 7.56988 40.9237 7.78858C40.7858 7.80848 40.648 7.82838 40.5059 7.84889C39.977 7.94786 39.511 8.09162 39.0139 8.27101C41.1668 6.34131 41.1668 6.34131 42.0696 6.34131Z" fill="#6CFACD"/>
<path d="M70.1434 11.4873C70.7358 12.2355 70.9719 13.0014 70.9073 13.8994C70.8443 13.6872 70.7812 13.4749 70.7163 13.2562C70.5272 13.3358 70.5272 13.3358 70.3343 13.417C70.3343 13.6293 70.3343 13.8415 70.3343 14.0602C70.2083 14.0602 70.0823 14.0602 69.9524 14.0602C69.9524 13.6888 69.9524 13.3173 69.9524 12.9346C70.0784 12.9346 70.2045 12.9346 70.3343 12.9346C70.2713 12.457 70.2083 11.9794 70.1434 11.4873Z" fill="#6CFACD"/>
<path d="M44.7432 12.1304C44.6119 12.4419 44.6119 12.4419 44.3613 12.7736C43.8957 12.8842 43.8957 12.8842 43.4064 12.9344C43.2173 12.9875 43.0282 13.0406 42.8334 13.0952C42.8334 13.2014 42.8334 13.3075 42.8334 13.4168C42.5813 13.4699 42.3292 13.523 42.0695 13.5777C42.5413 12.8493 43.6318 11.6624 44.7432 12.1304Z" fill="#6CFACD"/>
<path d="M65.3688 21.4573C65.6209 21.5103 65.873 21.5634 66.1327 21.6181C66.0697 21.7242 66.0067 21.8304 65.9418 21.9397C65.7527 21.9397 65.5636 21.9397 65.3688 21.9397C65.3058 22.152 65.2428 22.3642 65.1779 22.5829C65.3039 22.5829 65.4299 22.5829 65.5598 22.5829C65.5598 22.6891 65.5598 22.7952 65.5598 22.9046C65.1817 22.9576 64.8035 23.0107 64.4139 23.0654C64.477 22.747 64.54 22.4286 64.6049 22.1005C64.731 22.1005 64.857 22.1005 64.9869 22.1005C65.1129 21.8882 65.239 21.676 65.3688 21.4573Z" fill="#6CFACD"/>
<path d="M35.7672 21.1357C35.9563 21.2419 36.1453 21.348 36.3401 21.4574C35.4893 21.935 35.4893 21.935 34.6213 22.4222C34.5583 22.3161 34.4953 22.2099 34.4304 22.1006C34.6194 21.9414 34.8085 21.7822 35.0033 21.6182C34.6882 21.6182 34.3731 21.6182 34.0484 21.6182C34.1114 21.512 34.1744 21.4059 34.2394 21.2966C34.456 21.2999 34.6727 21.3032 34.8959 21.3066C35.541 21.3634 35.541 21.3634 35.7672 21.1357Z" fill="#6CFACD"/>
<path d="M70.9073 15.3464C71.0333 15.3464 71.1594 15.3464 71.2892 15.3464C71.3123 16.3808 71.2555 17.3755 71.0982 18.4018C71.0352 18.4018 70.9722 18.4018 70.9073 18.4018C70.8698 18.0434 70.8344 17.6849 70.7998 17.3264C70.7799 17.1268 70.76 16.9271 70.7394 16.7215C70.7192 16.2215 70.7598 15.8276 70.9073 15.3464Z" fill="#6CFACD"/>
<path d="M41.6876 13.5776C41.7506 13.6838 41.8136 13.7899 41.8785 13.8993C42.0046 13.9523 42.1306 14.0054 42.2605 14.0601C42.3156 14.1828 42.3708 14.3055 42.4276 14.4319C42.6656 14.9106 42.9523 15.1632 43.4064 15.5073C43.3433 15.6135 43.2803 15.7196 43.2154 15.829C43.1366 15.756 43.0578 15.683 42.9767 15.6078C42.655 15.3318 42.655 15.3318 42.2366 15.1757C41.8785 15.0249 41.8785 15.0249 41.6876 14.7033C41.6799 14.3281 41.6793 13.9528 41.6876 13.5776Z" fill="#6CFACD"/>
<path d="M26.4092 10.2007C26.684 10.2463 26.9585 10.2935 27.2328 10.3414C27.3857 10.3675 27.5385 10.3936 27.696 10.4205C28.128 10.5223 28.128 10.5223 28.7009 10.8439C28.89 10.8439 29.0791 10.8439 29.2739 10.8439C29.2739 11.1093 29.2739 11.3746 29.2739 11.648C28.3285 11.2234 27.3832 10.7989 26.4092 10.3615C26.4092 10.3084 26.4092 10.2554 26.4092 10.2007Z" fill="#6CFACD"/>
<path d="M46.653 27.5679C47.023 27.6985 47.023 27.6985 47.4169 27.8895C47.4799 28.0487 47.5429 28.2079 47.6078 28.3719C47.8265 28.4018 47.8265 28.4018 48.0495 28.4322C48.5627 28.5327 48.5627 28.5327 49.1357 28.8543C49.0726 28.9605 49.0096 29.0666 48.9447 29.176C48.066 28.9645 47.374 28.6882 46.653 28.2111C46.653 27.9967 46.653 27.7823 46.653 27.5679Z" fill="#6CFACD"/>
<path d="M55.247 6.82384C55.184 6.92997 55.121 7.0361 55.056 7.14545C55.119 7.30465 55.1821 7.46385 55.247 7.62788C53.9579 7.64798 53.9579 7.64798 53.5282 7.46707C53.5282 7.30787 53.5282 7.14867 53.5282 6.98464C54.1151 6.83821 54.6361 6.80955 55.247 6.82384Z" fill="#6CFACD"/>
<path d="M59.2576 25.96C59.2576 26.0661 59.2576 26.1722 59.2576 26.2816C59.3837 26.2816 59.5097 26.2816 59.6396 26.2816C59.568 26.5931 59.568 26.5931 59.4486 26.9248C59.2595 27.0044 59.2595 27.0044 59.0666 27.0856C58.9879 27.016 58.9091 26.9463 58.8279 26.8746C58.4821 26.5938 58.1185 26.3578 57.7298 26.1208C58.2574 26.0247 58.7153 25.96 59.2576 25.96Z" fill="#6CFACD"/>
<path d="M28.128 25.3167C27.6269 25.598 27.2577 25.7435 26.6957 25.8996C26.4741 25.9624 26.4741 25.9624 26.2481 26.0265C25.8363 26.1207 25.8363 26.1207 25.2634 26.1207C25.2634 26.0146 25.2634 25.9085 25.2634 25.7991C26.2463 25.2898 27.0124 25.2603 28.128 25.3167Z" fill="#6CFACD"/>
<path d="M26.0273 15.6682C26.1466 15.9597 26.1466 15.9597 26.2183 16.3114C26.0292 16.5502 26.0292 16.5502 25.8363 16.7939C25.5212 16.7408 25.2061 16.6877 24.8814 16.6331C24.8814 16.4739 24.8814 16.3147 24.8814 16.1506C25.035 16.1009 25.1886 16.0511 25.3469 15.9999C25.8154 15.8671 25.8154 15.8671 26.0273 15.6682Z" fill="#6CFACD"/>
<path d="M53.7191 3.9292C53.6594 4.23071 53.6594 4.23071 53.5281 4.57243C52.8721 4.94071 52.576 4.92274 51.8093 4.89405C51.9984 4.84098 52.1875 4.78792 52.3823 4.73324C52.3823 4.62711 52.3823 4.52097 52.3823 4.41162C52.2562 4.35856 52.1302 4.30549 52.0003 4.25082C53.0746 3.9292 53.0746 3.9292 53.7191 3.9292Z" fill="#6CFACD"/>
<path d="M48.3718 6.66284C48.5608 6.71591 48.7499 6.76898 48.9447 6.82365C48.54 7.043 48.1341 7.26046 47.7272 7.47693C47.612 7.53964 47.4968 7.60235 47.3781 7.66695C47.0798 7.82462 46.7714 7.96847 46.462 8.11012C46.3359 8.05705 46.2099 8.00398 46.08 7.94931C46.143 7.79011 46.2061 7.63091 46.271 7.46688C46.6494 7.35103 47.0321 7.24497 47.4169 7.14527C47.5862 7.05572 47.7556 6.96617 47.9301 6.8739C48.1487 6.76943 48.1487 6.76943 48.3718 6.66284Z" fill="#6CFACD"/>
<path d="M60.0215 2.48193C61.345 2.56153 61.345 2.56153 62.6952 2.64274C62.6952 2.69581 62.6952 2.74888 62.6952 2.80355C60.899 2.96275 60.899 2.96275 59.0666 3.12517C59.6395 2.80355 59.6395 2.80355 60.0215 2.80355C60.0215 2.69742 60.0215 2.59128 60.0215 2.48193Z" fill="#6CFACD"/>
<path d="M14.9507 24.9951C15.0137 25.1013 15.0767 25.2074 15.1417 25.3167C15.4843 25.3118 15.4843 25.3118 15.834 25.3067C16.5129 25.3057 17.148 25.3652 17.8154 25.4775C17.4573 25.6484 17.4573 25.6484 17.0514 25.7992C16.9254 25.7461 16.7994 25.693 16.6695 25.6384C16.6695 25.7445 16.6695 25.8506 16.6695 25.96C16.1023 25.8008 15.5351 25.6416 14.9507 25.4775C14.9507 25.3183 14.9507 25.1591 14.9507 24.9951Z" fill="#6CFACD"/>
<path d="M62.6952 24.1912C62.8843 24.2442 63.0733 24.2973 63.2681 24.352C62.9003 24.7442 62.5422 25.124 62.1223 25.4776C61.9332 25.4776 61.7441 25.4776 61.5493 25.4776C61.7876 24.859 62.0052 24.5081 62.6952 24.1912Z" fill="#6CFACD"/>
<path d="M65.5598 10.3616C65.7488 10.3616 65.9379 10.3616 66.1327 10.3616C66.1327 10.733 66.1327 11.1045 66.1327 11.4872C65.8176 11.4872 65.5025 11.4872 65.1778 11.4872C65.1778 11.2219 65.1778 10.9566 65.1778 10.6832C65.3038 10.6832 65.4299 10.6832 65.5598 10.6832C65.5598 10.5771 65.5598 10.4709 65.5598 10.3616Z" fill="#6CFACD"/>
<path d="M47.7988 6.01978C48.7298 6.16048 48.7298 6.16048 48.9446 6.34139C49.2646 6.29539 49.5832 6.24204 49.8995 6.18058C49.3902 6.73559 48.7723 6.81689 47.9897 6.98463C47.8007 7.06423 47.8007 7.06423 47.6078 7.14543C47.6708 6.93317 47.7338 6.7209 47.7988 6.5022C47.9878 6.5022 48.1769 6.5022 48.3717 6.5022C48.3717 6.39607 48.3717 6.28993 48.3717 6.18058C48.1826 6.12752 47.9936 6.07445 47.7988 6.01978Z" fill="#6CFACD"/>
<path d="M42.2606 18.7236C42.7583 19.1283 43.1952 19.5359 43.5974 20.0101C43.4064 20.3317 43.4064 20.3317 43.2155 20.4925C43.0894 20.4925 42.9634 20.4925 42.8335 20.4925C42.5232 20.1709 42.5232 20.1709 42.2606 19.8493C42.3236 19.7432 42.3866 19.637 42.4515 19.5277C42.3885 19.4215 42.3255 19.3154 42.2606 19.2061C42.2606 19.0469 42.2606 18.8877 42.2606 18.7236Z" fill="#6CFACD"/>
<path d="M22.7806 16.9546C22.9067 17.0077 23.0327 17.0607 23.1626 17.1154C23.1626 17.3277 23.1626 17.5399 23.1626 17.7586C22.5897 17.9194 22.5897 17.9194 22.1719 17.7687C22.0577 17.7123 21.9434 17.6559 21.8257 17.5978C22.0677 17.1903 22.2854 17.1189 22.7806 16.9546Z" fill="#6CFACD"/>
<path d="M21.0619 9.23584C21.251 9.23584 21.44 9.23584 21.6348 9.23584C21.6348 9.34197 21.6348 9.44811 21.6348 9.55746C22.265 9.55746 22.8953 9.55746 23.5446 9.55746C23.5446 9.61052 23.5446 9.66359 23.5446 9.71826C21.9375 9.79787 21.9375 9.79787 20.298 9.87907C20.5501 9.77294 20.8022 9.66681 21.0619 9.55746C21.0619 9.45132 21.0619 9.34519 21.0619 9.23584Z" fill="#6CFACD"/>
<path d="M17.4333 7.30633C17.1615 7.36603 17.1615 7.36603 16.8842 7.42693C16.2705 7.57346 16.2705 7.57346 16.0606 7.95961C16.0094 8.06243 15.9582 8.16524 15.9055 8.27118C15.7164 8.32424 15.5273 8.37731 15.3325 8.43198C15.3955 8.21972 15.4586 8.00745 15.5235 7.78875C15.6495 7.78875 15.7756 7.78875 15.9055 7.78875C15.9685 7.62955 16.0315 7.47035 16.0964 7.30633C16.6587 7.11696 16.8412 7.14013 17.4333 7.30633Z" fill="#6CFACD"/>
<path d="M70.1432 19.3667C70.2693 19.4198 70.3953 19.4728 70.5252 19.5275C70.382 20.5929 70.382 20.5929 69.9523 21.1356C69.7632 21.1356 69.5741 21.1356 69.3793 21.1356C69.3793 21.0295 69.3793 20.9233 69.3793 20.814C69.5054 20.814 69.6314 20.814 69.7613 20.814C69.8026 20.6349 69.8026 20.6349 69.8448 20.4522C69.9335 20.0871 70.0322 19.7273 70.1432 19.3667Z" fill="#6CFACD"/>
<path d="M19.3431 9.0752C19.9103 9.1548 19.9103 9.1548 20.4889 9.236C20.4889 9.34214 20.4889 9.44827 20.4889 9.55762C20.3629 9.55762 20.2369 9.55762 20.107 9.55762C20.107 9.71682 20.107 9.87602 20.107 10.04C19.7919 10.0931 19.4768 10.1462 19.1521 10.2009C19.0891 10.0417 19.0261 9.88245 18.9611 9.71843C18.8351 9.6123 18.709 9.50616 18.5792 9.39681C19.0518 9.47641 19.0518 9.47641 19.5341 9.55762C19.5341 9.66375 19.5341 9.76989 19.5341 9.87924C19.6601 9.87924 19.7861 9.87924 19.916 9.87924C19.7742 9.76979 19.7742 9.76979 19.6295 9.65813C19.3431 9.39681 19.3431 9.39681 19.3431 9.0752Z" fill="#6CFACD"/>
<path d="M53.5282 1.35624C52.4301 1.67786 52.4301 1.67786 52.0004 1.67786C51.9373 1.83706 51.8743 1.99626 51.8094 2.16029C51.4943 2.10722 51.1792 2.05415 50.8545 1.99948C50.8545 1.89334 50.8545 1.78721 50.8545 1.67786C51.1921 1.59243 51.5304 1.50907 51.8691 1.4266C52.0574 1.37996 52.2457 1.33332 52.4398 1.28526C52.9553 1.19543 52.9553 1.19543 53.5282 1.35624Z" fill="#6CFACD"/>
<path d="M49.1356 29.0154C49.8625 29.1234 50.5397 29.2932 51.2364 29.4978C51.2364 29.6039 51.2364 29.7101 51.2364 29.8194C50.7231 29.8697 50.7231 29.8697 50.0905 29.8194C49.5414 29.4174 49.5414 29.4174 49.1356 29.0154Z" fill="#6CFACD"/>
<path d="M46.462 22.9045C46.9205 23.3678 47.3162 23.7993 47.6078 24.3518C47.0406 24.2722 47.0406 24.2722 46.462 24.191C46.4344 24.0948 46.4068 23.9986 46.3784 23.8995C46.2925 23.6183 46.1891 23.3409 46.08 23.0653C46.2061 23.0123 46.3321 22.9592 46.462 22.9045Z" fill="#6CFACD"/>
<path d="M17.8152 18.2411C17.8783 18.4534 17.9413 18.6656 18.0062 18.8843C17.8526 18.9042 17.699 18.9241 17.5407 18.9446C17.2985 18.9944 17.2985 18.9944 17.0513 19.0451C16.9883 19.1513 16.9253 19.2574 16.8603 19.3667C16.8603 18.8843 16.8603 18.8843 17.2423 18.5627C16.8642 18.5627 16.486 18.5627 16.0964 18.5627C16.6951 18.264 17.1229 18.2087 17.8152 18.2411Z" fill="#6CFACD"/>
<path d="M30.2289 17.437C30.2289 17.5962 30.2289 17.7554 30.2289 17.9194C29.7992 18.2009 29.7992 18.2009 29.274 18.4019C28.8593 18.334 28.8593 18.334 28.5101 18.2411C28.7242 18.1061 28.9392 17.9723 29.1547 17.839C29.2743 17.7644 29.394 17.6898 29.5172 17.6129C29.847 17.437 29.847 17.437 30.2289 17.437Z" fill="#6CFACD"/>
<path d="M22.2077 17.1155C22.0816 17.3277 21.9556 17.54 21.8257 17.7587C21.1955 17.7587 20.5653 17.7587 19.916 17.7587C20.653 17.345 21.3162 17.1155 22.2077 17.1155Z" fill="#6CFACD"/>
<path d="M31.9477 23.2261C32.0738 23.2791 32.1998 23.3322 32.3297 23.3869C31.4291 24.1813 31.4291 24.1813 30.6706 24.211C30.452 24.2011 30.452 24.2011 30.2289 24.1909C30.7152 23.7132 31.2645 23.4709 31.9477 23.2261Z" fill="#6CFACD"/>
<path d="M29.847 20.3318C29.9731 20.3849 30.0991 20.4379 30.229 20.4926C30.0399 20.8641 29.8509 21.2355 29.6561 21.6183C29.3409 21.6183 29.0258 21.6183 28.7012 21.6183C28.7012 21.5121 28.7012 21.406 28.7012 21.2966C28.8902 21.2436 29.0793 21.1905 29.2741 21.1358C29.3371 21.0297 29.4002 20.9236 29.4651 20.8142C29.339 20.7611 29.213 20.7081 29.0831 20.6534C29.4412 20.4825 29.4412 20.4825 29.847 20.3318Z" fill="#6CFACD"/>
<path d="M27.5552 24.5127C27.9611 24.6635 27.9611 24.6635 28.3191 24.8343C28.2561 24.9935 28.1931 25.1527 28.1282 25.3167C27.687 25.3698 27.2458 25.4229 26.7913 25.4775C26.9823 25.1559 26.9823 25.1559 27.5552 24.9951C27.4292 24.889 27.3031 24.7829 27.1733 24.6735C27.2993 24.6204 27.4254 24.5674 27.5552 24.5127Z" fill="#6CFACD"/>
<path d="M51.4274 4.41162C51.5534 4.41162 51.6795 4.41162 51.8093 4.41162C51.8093 4.57082 51.8093 4.73002 51.8093 4.89405C52.1875 4.89405 52.5656 4.89405 52.9552 4.89405C52.4545 5.24039 52.0683 5.44091 51.4274 5.53728C51.4274 5.16581 51.4274 4.79435 51.4274 4.41162Z" fill="#6CFACD"/>
<path d="M63.841 2.32118C63.0307 2.66231 62.6333 2.82234 61.7164 2.73326C61.5426 2.71688 61.3687 2.7005 61.1897 2.68363C61.0562 2.67016 60.9228 2.65668 60.7853 2.6428C60.7853 2.58973 60.7853 2.53667 60.7853 2.48199C61.8092 2.3005 62.8007 2.3056 63.841 2.32118Z" fill="#6CFACD"/>
<path d="M67.4696 24.5127C67.7217 24.6188 67.9738 24.725 68.2336 24.8343C67.8554 25.3119 67.8554 25.3119 67.4696 25.7992C67.2823 25.3083 67.2823 25.0036 67.4696 24.5127Z" fill="#6CFACD"/>
<path d="M38.4409 8.43188C38.5669 8.48495 38.6929 8.53802 38.8228 8.59269C38.5602 8.83391 38.5602 8.83391 38.2499 9.07512C38.1238 9.07512 37.9978 9.07512 37.8679 9.07512C37.8049 9.28739 37.7419 9.49965 37.6769 9.71835C37.4248 9.71835 37.1728 9.71835 36.913 9.71835C36.913 9.61222 36.913 9.50608 36.913 9.39674C37.1021 9.39674 37.2912 9.39674 37.486 9.39674C37.549 9.23753 37.612 9.07833 37.6769 8.91431C38.0708 8.64295 38.0708 8.64295 38.4409 8.43188Z" fill="#6CFACD"/>
<path d="M64.9869 7.30615C65.5742 7.41213 65.9565 7.55358 66.5147 7.78858C65.8214 7.84164 65.1282 7.89471 64.4139 7.94939C64.54 7.89632 64.666 7.84325 64.7959 7.78858C64.8589 7.62938 64.9219 7.47018 64.9869 7.30615Z" fill="#6CFACD"/>
<path d="M61.5493 24.8342C61.6754 24.8873 61.8014 24.9404 61.9313 24.995C61.7403 25.3066 61.7403 25.3066 61.3583 25.6383C60.8428 25.7453 60.364 25.7696 59.8305 25.7991C60.3804 25.4389 60.932 25.1078 61.5493 24.8342Z" fill="#6CFACD"/>
<path d="M20.298 6.18042C20.298 6.39483 20.298 6.60924 20.298 6.82365C19.4472 6.90325 19.4472 6.90325 18.5792 6.98446C18.5792 6.87833 18.5792 6.77219 18.5792 6.66285C18.7682 6.66285 18.9573 6.66285 19.1521 6.66285C19.1521 6.55671 19.1521 6.45058 19.1521 6.34123C19.5302 6.28816 19.9084 6.23509 20.298 6.18042Z" fill="#6CFACD"/>
<path d="M70.3342 20.1709C70.5314 20.6193 70.5338 20.7929 70.3462 21.2564C70.2792 21.3758 70.2122 21.4952 70.1432 21.6182C69.9542 21.6182 69.7651 21.6182 69.5703 21.6182C69.5073 21.459 69.4443 21.2998 69.3793 21.1357C69.9523 20.8141 69.9523 20.8141 70.3342 20.6533C70.3342 20.4941 70.3342 20.3349 70.3342 20.1709Z" fill="#6CFACD"/>
<path d="M17.6243 18.7235C17.4588 18.7467 17.2934 18.77 17.1229 18.7939C16.8039 18.8387 16.8039 18.8387 16.4784 18.8843C16.0964 18.9379 15.7145 18.9915 15.3325 19.0451C15.3325 18.939 15.3325 18.8329 15.3325 18.7235C15.6063 18.6607 15.881 18.601 16.1561 18.5426C16.309 18.509 16.4619 18.4755 16.6194 18.4409C17.0513 18.4019 17.0513 18.4019 17.6243 18.7235Z" fill="#6CFACD"/>
<path d="M66.8967 15.5076C66.9597 15.5076 67.0227 15.5076 67.0877 15.5076C67.113 15.6181 67.1384 15.7285 67.1645 15.8424C67.1982 15.9873 67.232 16.1322 67.2667 16.2815C67.3 16.4251 67.3332 16.5688 67.3674 16.7168C67.4653 17.134 67.4653 17.134 67.6606 17.5981C67.4715 17.6777 67.4715 17.6777 67.2787 17.7589C66.8431 17.2088 66.8548 17.006 66.8728 16.3619C66.8763 16.202 66.8797 16.0422 66.8833 15.8776C66.8877 15.7555 66.8921 15.6334 66.8967 15.5076Z" fill="#6CFACD"/>
<path d="M44.1703 15.6682C44.2333 15.7743 44.2963 15.8805 44.3613 15.9898C44.6764 15.8837 44.9915 15.7776 45.3162 15.6682C44.4963 16.4325 44.4963 16.4325 43.7883 16.4723C43.6623 16.3661 43.5362 16.26 43.4064 16.1506C43.5954 16.1506 43.7845 16.1506 43.9793 16.1506C44.0423 15.9914 44.1054 15.8322 44.1703 15.6682Z" fill="#6CFACD"/>
<path d="M53.9101 11.3263C52.8702 11.7243 52.8702 11.7243 51.8093 12.1304C51.8093 11.8088 51.8093 11.8088 52.0361 11.5575C52.6611 11.1401 53.1681 11.1181 53.9101 11.3263Z" fill="#6CFACD"/>
<path d="M28.5101 7.14526C29.176 7.32367 29.804 7.50923 30.4199 7.7885C30.3569 7.89463 30.2939 8.00076 30.2289 8.11011C29.9774 8.04208 29.7269 7.97118 29.477 7.89905C29.3374 7.85987 29.1978 7.8207 29.054 7.78033C28.7011 7.62769 28.7011 7.62769 28.5101 7.14526Z" fill="#6CFACD"/>
<path d="M24.4995 5.85889C24.9964 5.89783 24.9964 5.89783 25.5738 5.99959C25.7653 6.03235 25.9568 6.0651 26.1542 6.09884C26.3014 6.12579 26.4486 6.15274 26.6003 6.1805C26.6003 6.23357 26.6003 6.28664 26.6003 6.34131C25.6387 6.50325 25.0267 6.49792 24.1176 6.1805C24.2436 6.07437 24.3696 5.96824 24.4995 5.85889Z" fill="#6CFACD"/>
<path d="M65.9418 19.5276C66.1308 19.6868 66.3199 19.846 66.5147 20.01C66.455 20.3618 66.455 20.3618 66.3237 20.6532C66.1347 20.6532 65.9456 20.6532 65.7508 20.6532C65.6878 20.7594 65.6247 20.8655 65.5598 20.9749C65.6859 20.4973 65.8119 20.0197 65.9418 19.5276Z" fill="#6CFACD"/>
<path d="M41.6874 18.5627C42.2604 18.7236 42.2604 18.7236 42.5946 19.1155C42.7128 19.3195 42.7128 19.3195 42.8333 19.5276C42.7703 19.6337 42.7073 19.7399 42.6423 19.8492C42.3902 19.7961 42.1381 19.7431 41.8784 19.6884C41.8154 19.3169 41.7524 18.9455 41.6874 18.5627Z" fill="#6CFACD"/>
<path d="M27.1733 18.4019C27.5672 18.4722 27.5672 18.4722 27.9372 18.5627C27.9372 18.7219 27.9372 18.8811 27.9372 19.0451C27.6851 19.0982 27.433 19.1512 27.1733 19.2059C27.0659 18.8943 27.0659 18.8943 26.9823 18.5627C27.0453 18.5096 27.1083 18.4565 27.1733 18.4019Z" fill="#6CFACD"/>
<path d="M38.6318 12.613C38.5058 12.613 38.3797 12.613 38.2499 12.613C38.2499 12.7722 38.2499 12.9314 38.2499 13.0954C37.8717 13.0954 37.4936 13.0954 37.104 13.0954C37.167 12.9362 37.23 12.777 37.295 12.613C37.8572 12.4236 38.0397 12.4468 38.6318 12.613Z" fill="#6CFACD"/>
<path d="M46.6531 10.844C46.7791 11.0563 46.9052 11.2685 47.035 11.4872C46.7199 11.4342 46.4048 11.3811 46.0801 11.3264C46.0801 11.4326 46.0801 11.5387 46.0801 11.648C45.8911 11.595 45.702 11.5419 45.5072 11.4872C45.8992 11.1258 46.0814 11.0044 46.6531 10.844Z" fill="#6CFACD"/>
<path d="M76.8277 6.66284C77.4894 6.90164 77.4894 6.90164 78.1645 7.14527C78.1645 7.19833 78.1645 7.2514 78.1645 7.30608C76.8993 7.34628 76.8993 7.34628 76.2548 6.98446C76.4438 6.98446 76.6329 6.98446 76.8277 6.98446C76.8277 6.87833 76.8277 6.77219 76.8277 6.66284Z" fill="#6CFACD"/>
<path d="M21.6348 24.0303C20.7886 24.5251 20.7886 24.5251 20.2382 24.4625C20.0787 24.4078 20.0787 24.4078 19.916 24.3519C20.496 23.8635 20.859 23.8126 21.6348 24.0303Z" fill="#6CFACD"/>
<path d="M67.4696 15.1858C67.5326 15.1858 67.5957 15.1858 67.6606 15.1858C67.7311 16.0566 67.7311 16.0566 67.3741 16.5326C67.2796 16.6188 67.1851 16.705 67.0877 16.7939C67.0504 15.8202 67.0504 15.8202 67.0877 15.5074C67.2137 15.4013 67.3398 15.2951 67.4696 15.1858Z" fill="#6CFACD"/>
<path d="M29.0829 14.7035C28.8939 14.7565 28.7048 14.8096 28.51 14.8643C28.447 15.0235 28.384 15.1827 28.319 15.3467C28.0039 15.2936 27.6888 15.2406 27.3641 15.1859C27.7432 14.5476 28.3273 14.4762 29.0829 14.7035Z" fill="#6CFACD"/>
<path d="M11.322 12.1304C11.5368 12.4017 11.5368 12.4017 11.7039 12.7736C11.5368 13.2158 11.5368 13.2158 11.322 13.5776C11.1959 13.4184 11.0699 13.2592 10.94 13.0952C11.1071 12.5826 11.1071 12.5826 11.322 12.1304Z" fill="#6CFACD"/>
<path d="M30.6109 11.6479C30.8 11.7541 30.989 11.8602 31.1838 11.9696C31.1208 12.1818 31.0578 12.3941 30.9929 12.6128C30.8668 12.6128 30.7408 12.6128 30.6109 12.6128C30.3006 12.2108 30.3006 12.2108 30.038 11.8088C30.227 11.7557 30.4161 11.7026 30.6109 11.6479Z" fill="#6CFACD"/>
<path d="M64.6049 3.9291C64.5418 4.0883 64.4788 4.2475 64.4139 4.41153C63.8467 4.41153 63.2795 4.41153 62.6951 4.41153C63.4234 4.0027 63.7406 3.90995 64.6049 3.9291Z" fill="#6CFACD"/>
<path d="M22.2077 23.5479C22.5277 23.5939 22.8463 23.6472 23.1626 23.7087C23.0996 23.8679 23.0365 24.0271 22.9716 24.1911C22.4044 24.1115 22.4044 24.1115 21.8257 24.0303C22.0167 23.7087 22.0167 23.7087 22.2077 23.5479Z" fill="#6CFACD"/>
<path d="M0.818176 21.4573C0.944222 21.4573 1.07027 21.4573 1.20013 21.4573C1.32618 21.8287 1.45222 22.2002 1.58209 22.5829C1.33 22.5299 1.07791 22.4768 0.818176 22.4221C0.818176 22.1037 0.818176 21.7853 0.818176 21.4573Z" fill="#6CFACD"/>
<path d="M49.3267 12.9346C49.4527 12.9876 49.5787 13.0407 49.7086 13.0954C49.3267 13.5778 49.3267 13.5778 48.8253 13.6884C48.6008 13.7132 48.6008 13.7132 48.3718 13.7386C48.5269 13.427 48.5269 13.427 48.7537 13.0954C48.9428 13.0423 49.1319 12.9892 49.3267 12.9346Z" fill="#6CFACD"/>
<path d="M41.8785 10.2007C42.1306 10.2538 42.3827 10.3068 42.6424 10.3615C42.2012 10.6268 41.7601 10.8922 41.3055 11.1655C41.3055 10.6831 41.3055 10.6831 41.5443 10.4017C41.6546 10.3354 41.7648 10.269 41.8785 10.2007Z" fill="#6CFACD"/>
<path d="M18.5793 10.0398C19.1465 10.1194 19.1465 10.1194 19.7252 10.2006C19.2244 10.5469 18.8382 10.7475 18.1973 10.8438C18.3234 10.5785 18.4494 10.3132 18.5793 10.0398Z" fill="#6CFACD"/>
<path d="M56.2019 9.71826C56.6431 9.71826 57.0842 9.71826 57.5388 9.71826C56.9684 10.0384 56.4699 10.1912 55.8199 10.3615C55.946 10.1492 56.072 9.93696 56.2019 9.71826Z" fill="#6CFACD"/>
</svg>
